<svg width="56" height="60" viewBox="0 0 56 60" fill="none" xmlns="http://www.w3.org/2000/svg">
<path d="M19.5516 23.1042C19.522 23.0852 19.4889 23.0758 19.4554 23.077C19.1347 23.077 18.5158 23.7485 17.9579 25.0178C17.3582 26.353 17.246 27.4864 17.5186 27.6649C17.548 27.6843 17.5813 27.6937 17.6148 27.6921C17.9354 27.6921 18.5543 27.0206 19.1123 25.7747C19.7248 24.4239 19.8242 23.2827 19.5516 23.1042Z" fill="white"/>
<path d="M10.1424 31.7008C10.2311 31.5423 10.3259 31.3639 10.4269 31.1538C8.31024 31.7286 8.13589 32.89 8.13283 32.9019L8.11448 33.0684C8.09842 33.1862 8.12427 33.3071 8.18483 33.3974C8.22877 33.4433 8.28451 33.466 8.34083 33.4608C8.66811 33.4608 9.22786 32.9812 9.7662 32.2716L10.1424 31.7008Z" fill="white"/>
<path fill-rule="evenodd" clip-rule="evenodd" d="M55.5627 10.7978V10.5214C55.2248 4.65613 50.4797 0 44.6552 0C42.3427 0 39.6581 0.243445 36.8308 0.499829C33.8897 0.766532 30.7942 1.04724 27.8027 1.08246C24.8137 1.04724 21.7197 0.766633 18.7796 0.499973C15.9522 0.243537 13.267 0 10.9541 0C5.13728 0 0.388306 4.65613 0.0582459 10.5214V10.7978C0.0194153 11.5156 0 12.2142 0 12.9282C0 29.4914 14.977 56.6528 25.5 59.666C25.535 59.6784 25.5715 59.6875 25.6076 59.6966C25.6277 59.7016 25.6476 59.7066 25.667 59.7121C26.3623 59.9039 27.0808 60.0008 27.8027 60C28.5258 60.0011 29.2457 59.9042 29.9423 59.7121C29.9845 59.7121 30.0268 59.6958 30.0691 59.6796L30.0691 59.6796C30.0779 59.6762 30.0867 59.6728 30.0955 59.6696C30.0988 59.6684 30.102 59.6672 30.1053 59.666C40.6323 56.6528 55.6093 29.4914 55.6093 12.9282C55.6131 12.2142 55.5937 11.5156 55.5627 10.7978ZM36.5901 31.4375C35.9999 32.1323 35.0097 32.4855 33.6507 32.4855H33.4565C31.1267 32.4279 28.2765 31.9788 25.2632 31.5028C21.8733 30.9654 18.3669 30.4127 15.4546 30.4127C14.977 30.4127 14.5227 30.4127 14.1033 30.4587C13.5947 30.4933 13.1054 30.5355 12.6433 30.5816C12.2769 31.3333 11.8234 32.0405 11.292 32.6889C10.395 33.6908 9.31942 34.2896 8.41855 34.2896C8.05398 34.3013 7.69809 34.1781 7.4206 33.9441C6.92615 33.4931 6.74793 32.7959 6.96629 32.1669C7.27771 31.4354 7.83442 30.8322 8.54281 30.4587C9.38588 29.9636 10.3035 29.6047 11.2609 29.3955C11.7053 28.5203 12.1998 27.4741 12.7564 26.2966L12.7564 26.2965C12.8565 26.0849 12.9586 25.869 13.0627 25.6491C13.319 25.1117 13.5791 24.5512 13.8393 23.987C13.9752 23.6377 14.1228 23.0235 13.5752 22.7894C13.464 22.7464 13.4048 22.626 13.4393 22.513C13.6555 22.0516 14.1333 21.7661 14.647 21.7913C15.1304 21.7401 15.6079 21.93 15.9206 22.298C16.1432 22.6642 16.1679 23.1155 15.9866 23.5033C15.8714 23.9341 15.0046 25.7418 14.1824 27.4565L14.1824 27.4565L13.9907 27.8562C13.9071 28.0278 13.8273 28.1957 13.75 28.3581L13.75 28.3583C13.6372 28.5954 13.5298 28.8212 13.4238 29.0308C14.3266 28.9357 15.234 28.8896 16.1419 28.8926H16.9186C20.1398 28.9417 23.3565 29.1518 26.5563 29.5221L26.7874 29.5466L26.7875 29.5466C27.9165 29.666 29.0989 29.791 30.618 29.906C31.1966 29.9559 31.7441 29.9789 32.245 29.9789C35.0563 29.9789 35.8834 29.2342 36.2329 28.9156L36.3416 28.8197L36.3882 28.7851C36.4766 28.6885 36.5958 28.6248 36.726 28.6047C36.9707 28.6047 37.0677 28.9502 37.1143 29.288C37.2598 30.0457 37.0688 30.8286 36.5901 31.4375ZM43.8328 28.2327C44.7074 26.3969 45.8326 24.0353 45.9521 23.5801C46.017 23.3382 46.0522 23.0894 46.0569 22.8392C46.0556 22.6697 46.0144 22.5028 45.9366 22.3517C45.7779 22.0736 45.4828 21.8986 45.16 21.8911H45.1172C45.0154 21.8906 44.9142 21.9074 44.8182 21.941L44.7678 21.9602C44.5755 22.0174 44.4433 22.1917 44.4416 22.3901C44.4401 22.4951 44.4258 22.5995 44.3989 22.701C44.3616 22.8312 44.3175 22.9593 44.2668 23.0849L44.2125 23.2001L43.0864 25.5032C42.2049 27.1115 41.7351 27.3533 41.5332 27.3533C41.4939 27.3541 41.4552 27.3448 41.4206 27.3265C41.3157 27.2689 41.2264 27.0885 41.3157 26.5012L41.3429 26.3361C41.3464 26.3218 41.3501 26.3069 41.3539 26.2915C41.3874 26.1546 41.4303 25.9793 41.4827 25.8103L41.5176 25.7181C41.5176 25.7173 41.5268 25.6953 41.5436 25.6551C41.6025 25.5136 41.7556 25.1462 41.937 24.674L42.1661 24.0791C42.4049 23.5933 42.6061 23.0903 42.768 22.5744C43.1097 21.5073 42.8107 20.1446 40.8692 19.5036C39.413 19.0199 34.2097 18.9892 28.6997 18.9585L28.653 18.9582C24.2292 18.9314 19.6623 18.9038 17.0194 18.6284C16.1108 18.5717 15.2365 18.2645 14.4955 17.7417C14.4075 17.6584 14.2968 17.6024 14.177 17.5805C13.9441 17.5805 13.715 18.0104 13.6256 18.6053C13.5437 19.4731 14.0636 20.2865 14.8915 20.586C15.6759 20.8893 17.0932 21.0351 19.2134 21.0351C21.4461 21.0351 24.1565 20.8816 27.03 20.7165C27.1421 20.7103 27.2545 20.7041 27.3669 20.6979C30.2435 20.5384 33.1942 20.3749 35.7241 20.3749H36.3648H37.5297H38.7568C39.2257 20.3576 39.6952 20.3859 40.1586 20.4593C40.5779 20.533 40.9091 20.8527 40.9934 21.2654C41.1604 22.1368 40.345 23.8756 39.6072 25.104C38.916 26.2632 37.9258 27.3533 37.6656 27.3533C37.6618 27.3533 37.6229 27.2804 37.7355 26.9349L38.7995 24.7009L38.8422 24.6088C39.0041 24.2967 39.1242 23.9651 39.1995 23.6223C39.2649 23.3445 39.2898 23.0588 39.2732 22.774C39.2444 22.2626 38.8314 21.8544 38.3141 21.8259H38.2054C37.52 21.8769 36.8787 22.1795 36.4075 22.6742C36.3815 22.2354 36.0381 21.8797 35.596 21.8335H35.5106V21.8758H35.4251C34.7769 21.9183 34.166 22.191 33.7049 22.6435C33.6889 22.5333 33.6535 22.4267 33.6001 22.3287C33.442 22.05 33.1466 21.8748 32.8235 21.8681H32.6837C32.6412 21.8711 32.5993 21.8801 32.5594 21.895H32.5089L32.4585 21.918C32.2654 21.9741 32.1327 22.149 32.1323 22.3479C32.1302 22.4541 32.1159 22.5597 32.0896 22.6627C32.0585 22.774 32.0119 22.9083 31.9032 23.1885C31.5961 23.9663 31.2341 24.7218 30.8198 25.4494V25.4725V25.5108C30.1403 26.7315 29.4452 27.4071 29.22 27.4071C29.2114 27.4112 29.2014 27.4112 29.1928 27.4071C29.1928 27.4071 29.154 27.338 29.2666 26.9887L30.3306 24.7547L30.3733 24.6625C30.6681 24.0955 30.8162 23.4651 30.8043 22.8277C30.7752 22.315 30.3601 21.9062 29.8413 21.8796H29.7364C29.0436 21.9247 28.3933 22.2262 27.9153 22.7241C27.8908 22.2846 27.5466 21.9281 27.1037 21.8834H27.0183V21.8796H26.9329C26.2391 21.9275 25.589 22.2317 25.1117 22.7318C25.086 22.2704 24.709 21.9044 24.2419 21.8873H24.2031C24.1386 21.8876 24.0749 21.9021 24.0167 21.9295H23.9818L23.9274 21.9525C23.7351 22.0089 23.6037 22.1842 23.6051 22.3824C23.6008 22.4885 23.5865 22.5938 23.5624 22.6972C23.5313 22.8085 23.4847 22.9429 23.376 23.2231C23.067 24.0001 22.7051 24.7554 22.2926 25.484C21.6014 26.743 20.887 27.4416 20.6579 27.4416H20.6307C20.5647 27.3418 20.7744 26.6279 21.6053 25.0924C21.8547 24.6353 22.0664 24.1591 22.2383 23.6684C22.3274 23.3954 22.3746 23.1107 22.3781 22.8239C22.3762 22.6556 22.335 22.4901 22.2577 22.3402C22.0996 22.0616 21.8042 21.8864 21.4811 21.8796C21.3792 21.879 21.2781 21.8959 21.1821 21.9295L21.1277 21.9487C20.937 22.0072 20.8066 22.1812 20.8054 22.3786V22.3978C20.8015 22.5013 20.7872 22.6042 20.7627 22.7049C20.7465 22.7656 20.725 22.8289 20.7026 22.8949C20.6981 22.9082 20.6935 22.9217 20.6889 22.9352C20.5884 22.5271 20.3232 22.1775 19.955 21.9679C19.7485 21.8589 19.5174 21.8035 19.2833 21.8067C18.2853 21.8067 17.1243 22.7049 16.3943 24.0407C15.9663 24.7859 15.7427 25.6288 15.7458 26.4858C15.7769 27.2535 16.0759 27.8447 16.6272 28.121C16.8338 28.23 17.0649 28.2855 17.299 28.2823C18.005 28.2253 18.6647 27.9122 19.1512 27.4032C19.1721 27.8864 19.5746 28.2673 20.0638 28.2669H20.1686C20.823 28.2198 21.4382 27.9403 21.9004 27.48C21.9159 27.5928 21.9513 27.7019 22.0053 27.8024C22.1639 28.0805 22.459 28.2555 22.7819 28.2631H22.8634C22.9279 28.2619 22.9913 28.2475 23.0498 28.2208H23.0809L23.1353 28.1978C23.3267 28.1403 23.4576 27.9657 23.4575 27.7679C23.4599 27.6579 23.4742 27.5486 23.5003 27.4416C23.5352 27.3303 23.5779 27.196 23.6866 26.9157C23.9914 26.1414 24.3468 25.3874 24.7506 24.6587C25.4418 23.3958 26.1563 22.701 26.3893 22.701C26.398 22.6978 26.4077 22.6978 26.4164 22.701C26.4164 22.701 26.4553 22.7586 26.3349 23.1425C26.0879 23.8047 25.7879 24.4465 25.4379 25.0617C25.1885 25.5188 24.9769 25.9951 24.805 26.4858C24.7076 26.7606 24.6488 27.0474 24.6302 27.338C24.6336 27.5073 24.6747 27.6737 24.7506 27.8255C24.8954 28.0797 25.156 28.2486 25.4496 28.2784H25.535C25.6352 28.2787 25.7348 28.2632 25.8301 28.2324L25.8845 28.2093C26.0759 28.1518 26.2068 27.9772 26.2067 27.7794C26.2091 27.6695 26.2234 27.5601 26.2495 27.4531C26.2844 27.3418 26.3271 27.2075 26.4359 26.9273C26.7425 26.1555 27.1019 25.4053 27.5115 24.6817C28.2104 23.4035 28.9249 22.7087 29.154 22.7087H29.1851C29.2472 22.8124 29.0375 23.5263 28.2065 25.0617C28.2065 25.0617 28.1522 25.1615 28.0745 25.3189V25.3803C27.8907 25.7365 27.735 26.1061 27.6085 26.4858C27.531 26.7504 27.4905 27.0242 27.4882 27.2996C27.4895 27.4691 27.5307 27.636 27.6085 27.7871C27.7666 28.0658 28.062 28.241 28.3851 28.2477H28.6337C29.2993 28.195 29.9236 27.9076 30.3927 27.4378C30.4091 27.5474 30.4432 27.6536 30.4936 27.7525C30.6575 28.0362 30.9631 28.2108 31.2936 28.2093H31.3867C31.4585 28.2097 31.5292 28.1926 31.5925 28.1594L31.643 28.1402C31.8353 28.0831 31.9675 27.9088 31.9692 27.7103C31.9713 27.6041 31.9856 27.4985 32.0119 27.3956C32.043 27.2842 32.0896 27.1499 32.1983 26.8697C32.5051 26.0893 32.8671 25.3312 33.2817 24.6011C33.9729 23.3382 34.6873 22.6435 34.9164 22.6435C34.9381 22.6435 34.9425 22.641 34.9434 22.642C34.9436 22.6422 34.9436 22.6427 34.9436 22.6435C34.9436 22.6437 34.9438 22.6442 34.9442 22.6451C34.9487 22.6564 34.9777 22.7277 34.8621 23.0849C34.6184 23.7479 34.3197 24.3899 33.969 25.0042C33.7179 25.4604 33.5062 25.9368 33.336 26.4283C33.2491 26.7006 33.2008 26.9835 33.1924 27.2689C33.1958 27.4382 33.2369 27.6046 33.3127 27.7564C33.459 28.0099 33.7185 28.1795 34.0117 28.2132H34.0971C34.1988 28.2119 34.2996 28.195 34.3961 28.1633L34.4466 28.1402C34.6389 28.0831 34.7711 27.9088 34.7728 27.7103C34.7726 27.604 34.787 27.4981 34.8155 27.3956C34.8673 27.2168 34.9295 27.0413 35.0019 26.8697C35.2857 26.1078 35.623 25.3664 36.0115 24.651C36.7104 23.3728 37.421 22.678 37.654 22.678H37.6812C37.6812 22.678 37.7239 22.7279 37.6812 22.916C37.4385 23.6527 37.117 24.3617 36.7221 25.031C36.7221 25.031 36.6677 25.1308 36.59 25.2844V25.3458L36.5007 25.5262L36.4192 25.649L36.392 25.7104L36.3571 25.7834L36.3221 25.8563L36.2988 25.9177L36.2561 26.0175V26.0559L36.2095 26.1711V26.2018L36.1668 26.3169V26.34C36.1625 26.3515 36.1577 26.3628 36.1529 26.374C36.1402 26.4035 36.128 26.4321 36.128 26.4628C36.0969 26.5664 36.0736 26.6586 36.0542 26.7469C36.0106 26.9306 35.9871 27.1185 35.9843 27.3073C35.9877 27.4765 36.0288 27.643 36.1047 27.7948C36.2633 28.0729 36.5584 28.2479 36.8813 28.2554H37.1298C37.8637 28.1917 38.5454 27.8541 39.0364 27.3111C39.0441 27.3034 39.3781 26.9388 39.6382 26.6432C39.6563 27.1253 39.8525 27.5841 40.1896 27.933L40.2751 27.9867C40.3399 28.038 40.4087 28.0842 40.4809 28.1249C40.6876 28.2334 40.9186 28.2888 41.1526 28.2861C41.4199 28.2848 41.6841 28.23 41.9292 28.1249C41.7234 28.5586 41.5099 28.9924 41.3002 29.3993C40.3429 29.6093 39.4255 29.9682 38.5821 30.4625C37.8708 30.8346 37.3112 31.438 36.9978 32.1707C36.7785 32.799 36.9551 33.496 37.4482 33.9479C37.7259 34.1816 38.0816 34.3048 38.4461 34.2934C39.3509 34.2934 40.4265 33.6946 41.3196 32.6927C41.8514 31.979 42.3266 31.2257 42.7408 30.4395L42.7641 30.3973C43.1486 30.3169 43.5376 30.2592 43.929 30.2246C44.0978 30.2047 44.2677 30.1944 44.4377 30.1938C44.7435 30.192 45.0484 30.2255 45.3463 30.2936C45.4175 30.3122 45.4903 30.3238 45.5638 30.3282C45.6274 30.3325 45.6892 30.3069 45.7308 30.2591C45.789 30.1862 45.7968 30.071 45.7541 29.8407C45.6065 29.0576 44.8843 28.9694 44.3523 28.9694C44.051 28.9745 43.7502 28.9963 43.4514 29.0346L43.5679 28.7889C43.6525 28.6112 43.7413 28.4248 43.8328 28.2327Z" fill="white"/>
<path d="M38.2576 32.9028L38.2362 33.069C38.2202 33.1866 38.246 33.3073 38.3066 33.3975C38.3505 33.4433 38.4062 33.466 38.4626 33.4608C38.8357 33.4608 39.5148 32.8356 40.1143 31.9452C40.2759 31.6976 40.4212 31.4328 40.5486 31.1538C38.432 31.7316 38.2576 32.891 38.2576 32.9028Z" fill="white"/>
</svg>
