<svg width="58" height="26" viewBox="0 0 58 26" fill="none" xmlns="http://www.w3.org/2000/svg">
<g clip-path="url(#clip0)">
<path d="M44.4322 18.4244C44.3176 17.8067 44.1768 17.5157 43.9551 17.437C43.7333 17.3583 43.5235 17.5252 43.3374 17.685L43.2753 17.7375C43.2324 17.7733 43.1775 17.8257 43.1156 17.8782C42.4716 18.4697 40.9547 19.8458 34.8656 19.3522C32.4829 19.159 30.6583 18.9562 28.9005 18.7702C25.168 18.3648 21.9481 18.0118 14.7404 17.8353C12.8968 17.7924 11.1676 17.852 9.60539 18.0213C9.85343 17.4918 10.1349 16.9003 10.4354 16.2659C11.7233 13.5565 13.1782 10.4965 13.3642 9.80001C13.6195 9.08449 13.5837 8.46676 13.2665 8.00883C12.923 7.52465 12.279 7.25992 11.4395 7.25992C10.4855 7.25992 9.75325 7.89436 9.66502 8.33559C9.62923 8.52162 9.70081 8.67904 9.86775 8.75059C10.6715 9.09403 10.4497 10.0123 10.2565 10.5155C9.8606 11.3622 9.47182 12.1922 9.09976 12.9865C8.09326 15.1569 7.22031 17.0267 6.44518 18.5627C4.85673 18.9514 3.51632 19.4811 2.4669 20.1417C1.22189 20.9192 0.482513 21.7301 0.13668 22.6817C-0.190073 23.5904 0.084213 24.7115 0.797348 25.3292C1.19327 25.6726 1.69652 25.842 2.26178 25.842C3.54018 25.842 5.13816 24.9856 6.47857 23.4593C7.07007 22.789 7.72358 21.7563 8.46295 20.3277C9.13315 20.2561 9.85582 20.1964 10.6071 20.1417C15.2127 19.8053 21.2039 20.769 26.9997 21.6942C31.4288 22.4003 35.6193 23.0706 39.0347 23.1588C41.1526 23.2111 42.6957 22.7008 43.6044 21.6324C44.6873 20.392 44.5107 18.8656 44.4322 18.4244ZM4.44888 21.8922C3.35413 23.1445 2.14728 24.027 1.42223 24.0794C1.27197 24.089 1.14796 24.0626 1.06925 23.9911C0.945224 23.8862 0.928532 23.6907 0.938073 23.507L0.973839 23.2875C0.973839 23.2708 1.30059 21.5941 5.25265 20.7736C4.95928 21.2389 4.69454 21.6084 4.44888 21.8922Z" fill="white"/>
<path d="M57.412 9.91958C57.517 9.54036 57.5719 9.02041 57.5719 8.79859C57.5719 8.6054 57.5194 8.30489 57.3953 8.07592C57.1569 7.66093 56.7156 7.39617 56.2482 7.38665C56.0717 7.3771 55.9048 7.40334 55.7354 7.4582L55.6734 7.48442C55.3729 7.58222 55.1892 7.82788 55.1892 8.12841C55.1892 8.37645 55.1272 8.6054 55.1272 8.6054C55.0748 8.79144 55.0031 8.98462 54.934 9.18737L53.1954 12.7697C52.1197 14.7541 51.2276 15.7511 50.7434 15.4863C50.6028 15.4076 50.462 15.1333 50.5837 14.2604L50.6266 14.0124C50.6791 13.7643 50.7506 13.4996 50.8294 13.2348L50.8818 13.0941C50.8818 13.0846 51.1561 12.4406 51.4994 11.551C51.6402 11.2338 51.7643 10.969 51.8692 10.74C52.2579 9.8838 52.4154 9.53083 52.7517 8.49809C53.2548 6.91919 52.7874 4.89902 49.9636 3.94499C47.829 3.22947 40.18 3.17701 32.0899 3.13407C25.5691 3.0983 18.8289 3.05536 14.9293 2.64991C12.7684 2.42094 11.7262 1.68873 11.2229 1.33574C11.0106 1.18548 10.8795 1.09723 10.7554 1.09723C10.412 1.09723 10.0757 1.7412 9.94451 2.62367C9.85626 3.20562 10.0232 4.87278 11.8073 5.56206C14.5429 6.62104 21.8747 6.1965 29.6381 5.75526C34.296 5.49052 39.1043 5.21624 43.1183 5.25201C43.7098 5.26156 44.4063 5.24246 45.1385 5.23531C46.7008 5.20907 48.4656 5.18285 49.0023 5.34026C49.7249 5.55968 50.1233 5.94129 50.2282 6.53994C50.4667 7.81834 49.2742 10.4037 48.1891 12.2307C47.0943 14.0744 45.5774 15.6533 45.3222 15.5746C45.3222 15.5746 45.2602 15.4696 45.4199 14.9664L46.9894 11.6321L47.0514 11.508C47.0681 11.4818 47.3948 10.8641 47.5809 10.0341C47.6786 9.58329 47.712 9.16113 47.6953 8.77235C47.6524 8.00437 46.9988 7.3604 46.2738 7.3604C45.3818 7.30794 44.4206 7.73963 43.4762 8.62209C43.4404 7.9686 42.9371 7.43911 42.286 7.36995C42.2431 7.36995 42.2072 7.3604 42.1262 7.3604C41.289 7.31747 40.3612 7.72294 39.4787 8.50762C39.4525 8.34783 39.4072 8.18087 39.3285 8.04016C39.0542 7.55598 38.4985 7.29124 37.9523 7.36995C37.8903 7.3795 37.8283 7.38665 37.7495 7.41289L37.6351 7.45581C37.3346 7.5536 37.151 7.79927 37.151 8.09977C37.151 8.34783 37.0889 8.58395 37.0889 8.58395C37.046 8.7509 36.9745 8.94648 36.8146 9.36863C36.1087 11.1956 35.2357 12.7125 35.2262 12.7292L35.2095 12.8079C34.3175 14.4321 33.2872 15.5793 32.8721 15.639C32.8292 15.6485 32.8101 15.6294 32.8101 15.6294C32.8101 15.6294 32.748 15.5245 32.9079 15.0212L34.4772 11.6869L34.5393 11.5629C34.5656 11.5104 35.2621 10.213 35.1833 8.82723C35.1404 8.05923 34.4869 7.41526 33.7619 7.41526C32.8697 7.3628 31.8919 7.80402 30.9641 8.66742C30.9282 8.01391 30.4251 7.48442 29.774 7.41526C29.7309 7.41526 29.6953 7.40572 29.6141 7.40572C28.7483 7.35325 27.78 7.80164 26.8522 8.66742C26.8093 7.98767 26.2607 7.44151 25.5548 7.40572H25.5119C25.4237 7.40572 25.3258 7.42242 25.2567 7.4582C25.24 7.46773 25.2136 7.46775 25.185 7.4749L25.123 7.50112C24.8225 7.59892 24.6388 7.84458 24.6388 8.1451C24.6388 8.39314 24.577 8.62209 24.577 8.62209C24.5244 8.79859 24.4624 8.99179 24.3027 9.40679C23.5966 11.2338 22.7237 12.7506 22.7046 12.7673C21.8054 14.425 20.7464 15.608 20.3316 15.67C20.2885 15.6795 20.2695 15.6604 20.2695 15.6604C20.1717 15.5102 20.4818 14.425 21.698 12.1663C21.7244 12.1139 22.3874 10.8879 22.6235 10.0484C22.8263 9.3591 22.8357 8.92024 22.8357 8.79622C22.8357 8.60304 22.7834 8.30251 22.6593 8.07355C22.3421 7.50827 21.6624 7.25308 21.0447 7.46535L20.9827 7.49157C20.682 7.58937 20.4985 7.83503 20.4985 8.13556C20.4985 8.3836 20.4365 8.61256 20.4365 8.61256C20.4006 8.72706 20.3648 8.84153 20.3316 8.95603C20.1382 8.28582 19.7662 7.79927 19.2559 7.51782C17.7294 6.69737 15.3825 8.07355 14.023 10.5969C12.6564 13.1203 12.7875 15.8369 14.3044 16.6669C15.3181 17.2131 16.7491 16.7981 18.0108 15.5984C18.037 16.3139 18.6286 16.8864 19.3608 16.8864C20.2075 16.9388 21.1519 16.5238 22.0511 15.7224C22.0773 15.8822 22.1226 16.0587 22.211 16.2066C22.4662 16.6574 22.9527 16.9221 23.4558 16.8864H23.4989C23.5871 16.8864 23.6848 16.8696 23.7636 16.8339C23.7803 16.8243 23.7994 16.8243 23.8256 16.8172L23.8876 16.7909C24.1881 16.6932 24.3718 16.4475 24.3718 16.147C24.3718 15.8989 24.4338 15.6628 24.4338 15.6628C24.4767 15.4959 24.5482 15.3003 24.7081 14.8781C25.414 13.0512 26.287 11.5343 26.306 11.5176C27.2052 9.85995 28.2642 8.67697 28.6792 8.61496C28.7221 8.60542 28.7413 8.62449 28.7413 8.62449C28.7413 8.62449 28.8033 8.73898 28.6267 9.28515C28.4073 9.94583 27.9375 10.9523 27.3126 12.1258C27.2864 12.1782 26.6232 13.4042 26.3871 14.2437C26.1843 14.933 26.1749 15.3718 26.1749 15.4959C26.1749 15.689 26.2274 15.9896 26.3513 16.2185C26.5636 16.5978 26.9428 16.8458 27.3746 16.8983C27.5677 16.915 27.7538 16.8887 27.9399 16.8267L28.0019 16.8005C28.3024 16.7027 28.4861 16.457 28.4861 16.1565C28.4861 15.9085 28.5479 15.6795 28.5479 15.6795C28.6005 15.503 28.6625 15.3098 28.8222 14.8948C29.4925 13.1657 30.313 11.7179 30.4203 11.5343C31.3195 9.87665 32.3785 8.69367 32.7934 8.63166C32.8364 8.62211 32.8554 8.64118 32.8554 8.64118C32.9533 8.79144 32.6431 9.87665 31.4269 12.1353C31.4269 12.1353 31.3481 12.2856 31.2335 12.5145L31.2074 12.5241L31.1812 12.6123C30.9522 13.0798 30.642 13.75 30.4918 14.2532C30.2892 14.9425 30.2795 15.3814 30.2795 15.5054C30.2795 15.6986 30.3321 15.9991 30.4561 16.2281C30.6946 16.6526 31.1453 16.9174 31.6391 16.9174C31.6486 16.9174 31.6557 16.9174 31.6653 16.9174H31.8514C32.6884 16.9698 33.6592 16.5381 34.5775 15.7177C34.6037 15.8775 34.649 16.0444 34.7278 16.1851C34.9829 16.6359 35.4504 16.9007 35.9895 16.8649H36.0419C36.1468 16.8649 36.2447 16.8386 36.3162 16.8029L36.414 16.7671C36.7145 16.6693 36.8982 16.4236 36.8982 16.1231C36.8982 15.8751 36.9602 15.639 36.9602 15.639C37.0031 15.472 37.0746 15.2764 37.2343 14.8543C37.9404 13.0273 38.8133 11.5104 38.8324 11.4937C39.7316 9.83611 40.7906 8.65311 41.2055 8.5911C41.2486 8.58155 41.2675 8.60064 41.2675 8.60064C41.2675 8.60064 41.3295 8.71512 41.1531 9.2613C40.9408 9.92196 40.4734 10.9285 39.839 12.1019C39.8126 12.1544 39.1496 13.3803 38.9136 14.2199C38.7108 14.9091 38.7013 15.348 38.7108 15.472C38.7108 15.6652 38.7633 15.9657 38.8872 16.1947C39.0995 16.5739 39.4787 16.8219 39.9105 16.8744C40.1036 16.8911 40.2897 16.8649 40.4758 16.8029L40.5376 16.7766C40.8383 16.6788 41.022 16.4332 41.022 16.1327C41.022 15.8846 41.084 15.6485 41.084 15.6485C41.1269 15.4815 41.1984 15.2788 41.3581 14.8638C42.0284 13.1347 42.8489 11.6869 42.9562 11.5033C43.8554 9.84565 44.9144 8.66265 45.3293 8.60064C45.3724 8.5911 45.3913 8.61019 45.3913 8.61019C45.3913 8.61019 45.4271 8.68173 45.3651 8.96316C45.2243 9.5809 44.7116 10.7186 43.9628 12.1043C43.9628 12.1043 43.884 12.2546 43.7694 12.4835L43.7433 12.4931L43.7171 12.5813C43.6742 12.66 43.6289 12.7578 43.5858 12.8556L43.1612 13.8359C43.135 13.8979 43.1183 13.9503 43.0897 14.0386C43.073 14.1006 43.0468 14.1626 43.0277 14.2246C42.9848 14.3749 42.949 14.5156 42.9228 14.6396C42.8251 15.0904 42.8178 15.3718 42.8178 15.4768C42.8178 15.67 42.8704 15.9705 42.9943 16.1995C43.2424 16.6407 43.7098 16.9054 44.2107 16.8792H44.3873C45.2864 16.9412 46.355 16.4284 47.3352 15.4768C47.3446 15.4672 47.829 14.9306 48.2082 14.4894C48.2797 15.3003 48.5516 15.9633 49.0023 16.395L48.9761 16.4213L49.1167 16.4928C49.2218 16.5811 49.3195 16.6431 49.4244 16.7051C50.016 17.0223 50.7577 17.0223 51.5329 16.7051C51.2251 17.349 50.9152 17.993 50.6074 18.5941C49.019 18.9828 47.6786 19.5122 46.6293 20.173C45.3842 20.9504 44.6449 21.7614 44.2989 22.713C43.9723 23.6314 44.2465 24.7427 44.9597 25.3604C45.3556 25.704 45.8589 25.8733 46.424 25.8733C47.7025 25.8733 49.3004 25.017 50.6409 23.4906C51.0034 23.0755 51.726 21.9211 52.7231 20.1372L52.7588 20.0751C52.8566 20.049 53.2262 19.9702 54.4521 19.82C55.4754 19.6959 56.3054 19.8629 56.5343 19.9178C56.7539 19.9702 56.9494 20.0155 57.0805 19.8915C57.2046 19.7674 57.1951 19.5553 57.1426 19.2476C56.8612 17.7664 55.2631 17.8714 53.7629 18.0479L53.9226 17.7044C55.2154 14.8877 57.1998 10.6685 57.412 9.91958ZM19.4561 10.1843C19.325 10.9428 18.9792 11.861 18.4854 12.7697C17.4169 14.7374 16.1385 15.8131 15.6544 15.5483C15.1702 15.2836 15.3729 13.626 16.4319 11.6583C17.3931 9.88382 18.5236 8.83438 19.096 8.83438C19.158 8.83438 19.2201 8.84393 19.263 8.87015C19.5087 9.01088 19.5802 9.49504 19.4561 10.1843ZM48.5707 21.8925C47.4759 23.1448 46.269 24.0271 45.5439 24.0797C45.3937 24.0892 45.2793 24.063 45.1911 23.9915C45.0765 23.8936 45.0503 23.7267 45.0598 23.5502L45.1027 23.2759C45.1027 23.2592 45.4032 21.5896 49.3815 20.7621C49.0905 21.239 48.8187 21.6088 48.5707 21.8925Z" fill="white"/>
</g>
<defs>
<clipPath id="clip0">
<rect width="57.5714" height="26" fill="white"/>
</clipPath>
</defs>
</svg>
