<?xml version="1.0" standalone="no"?>
<!DOCTYPE svg PUBLIC "-//W3C//DTD SVG 20010904//EN"
 "http://www.w3.org/TR/2001/REC-SVG-20010904/DTD/svg10.dtd">
<svg version="1.0" xmlns="http://www.w3.org/2000/svg"
 width="512.000000pt" height="512.000000pt" viewBox="0 0 512.000000 512.000000"
 preserveAspectRatio="xMidYMid meet">
<metadata>
Created by potrace 1.11, written by Peter Selinger 2001-2013
</metadata>
<g transform="translate(0.000000,512.000000) scale(0.100000,-0.100000)"
fill="#000000" stroke="none">
<path d="M955 5016 c-119 -30 -220 -74 -299 -130 -198 -141 -321 -319 -383
-555 -24 -88 -26 -114 -27 -326 -1 -205 5 -351 18 -425 3 -14 7 -43 11 -65 5
-39 21 -133 30 -177 4 -25 43 -194 49 -218 2 -8 14 -53 25 -98 33 -126 164
-517 201 -597 5 -11 25 -60 45 -110 118 -290 314 -671 493 -960 66 -106 182
-282 205 -310 4 -5 26 -35 48 -65 45 -60 80 -106 119 -154 14 -17 32 -39 40
-50 72 -93 273 -299 380 -391 154 -131 302 -219 445 -265 86 -28 268 -36 336
-16 24 8 46 14 49 14 21 2 70 18 111 38 27 13 52 24 55 24 16 0 218 141 294
205 113 96 295 286 398 415 46 58 92 114 102 126 16 20 40 53 154 218 73 105
203 314 283 457 66 116 253 481 253 494 0 3 13 33 29 67 16 35 41 92 56 128
14 36 30 74 35 85 15 32 78 201 116 310 85 246 171 576 198 760 4 23 8 52 11
65 3 14 8 48 11 75 3 28 8 64 11 80 9 60 11 501 3 550 -18 105 -22 122 -46
193 -93 277 -309 496 -580 588 -106 36 -184 44 -384 39 -107 -3 -211 -7 -230
-9 -19 -2 -71 -7 -115 -11 -44 -4 -91 -9 -105 -10 -14 -1 -61 -6 -105 -9 -44
-4 -93 -9 -110 -11 -16 -2 -64 -6 -105 -10 -41 -3 -95 -8 -120 -10 -257 -22
-597 -22 -800 -1 -19 2 -75 7 -125 11 -49 3 -101 8 -115 10 -14 2 -59 7 -100
10 -41 3 -87 8 -102 10 -14 2 -68 6 -120 10 -51 4 -106 9 -123 11 -16 3 -120
6 -230 9 -182 3 -208 2 -290 -19z"/>
</g>
</svg>
